<?xml version="1.0" encoding="utf-8"?>
<!-- Generator: Adobe Illustrator 16.0.0, SVG Export Plug-In . SVG Version: 6.00 Build 0)  -->
<!DOCTYPE svg PUBLIC "-//W3C//DTD SVG 1.1//EN" "http://www.w3.org/Graphics/SVG/1.1/DTD/svg11.dtd">
<svg version="1.1" xmlns="http://www.w3.org/2000/svg" xmlns:xlink="http://www.w3.org/1999/xlink" x="0px" y="0px" width="424px"
	 height="424px" viewBox="0 0 424 424" enable-background="new 0 0 424 424" xml:space="preserve">
<g id="Calque_1">
	
		<rect x="62.093" y="62.093" transform="matrix(-0.7071 0.7071 -0.7071 -0.7071 511.8137 212.0002)" fill="#CAD4E0" width="299.814" height="299.813"/>
</g>
<g id="Calque_4">
	<rect x="120" y="159" fill="#FFFFFF" width="194" height="134"/>
	<rect x="120" y="163" fill="#63676B" width="186" height="122"/>
</g>
<g id="Calque_3">
	<rect x="106" y="145" fill="#FFFFFF" width="194" height="134"/>
	<rect x="106" y="149" fill="#63676B" width="186" height="122"/>
</g>
<g id="Calque_2">
	<rect x="92" y="129" fill="#FFFFFF" width="194" height="134"/>
</g>
<g id="Calque_5">
	<rect x="101" y="136" fill="#FFE669" width="176" height="118"/>
	<ellipse fill="#969386" cx="247" cy="222.666" rx="30" ry="27.667"/>
	<rect x="217" y="223" fill="#969386" width="60" height="31"/>
	<rect x="172" y="223" fill="#666663" width="57" height="31"/>
	<ellipse fill="#666663" cx="200.5" cy="222.767" rx="28.5" ry="11.233"/>
	<rect x="101" y="226" fill="#253BD6" width="71" height="28"/>
	<ellipse fill="#253BD6" cx="172" cy="240" rx="12" ry="14"/>
	<circle fill="#F7F5D2" cx="140" cy="165" r="20"/>
</g>
</svg>
