<?xml version="1.0" encoding="utf-8"?>
<!-- Generator: Adobe Illustrator 16.0.0, SVG Export Plug-In . SVG Version: 6.00 Build 0)  -->
<!DOCTYPE svg PUBLIC "-//W3C//DTD SVG 1.1//EN" "http://www.w3.org/Graphics/SVG/1.1/DTD/svg11.dtd">
<svg version="1.1" xmlns="http://www.w3.org/2000/svg" xmlns:xlink="http://www.w3.org/1999/xlink" x="0px" y="0px" width="424px"
	 height="424px" viewBox="0 0 424 424" enable-background="new 0 0 424 424" xml:space="preserve">
<g id="Calque_1">
	
		<rect x="62.093" y="62.093" transform="matrix(-0.7071 0.7071 -0.7071 -0.7071 511.8137 212.0002)" fill="#70C194" width="299.814" height="299.813"/>
</g>
<g id="Calque_3">
	<path fill="#B7ABB7" d="M292,300c0,6.627-4.903,12-10.951,12H135.951c-6.048,0-10.951-5.373-10.951-12v-12
		c0-6.627,4.903-12,10.951-12h145.098c6.048,0,10.951,5.373,10.951,12V300z"/>
	<path fill="#B7ABB7" d="M310,126c0,6.627-4.903,12-10.951,12H153.951c-6.048,0-10.951-5.373-10.951-12v-12
		c0-6.627,4.903-12,10.951-12h145.098c6.048,0,10.951,5.373,10.951,12V126z"/>
	<line fill="none" stroke="#7169A3" stroke-miterlimit="10" x1="143" y1="146" x2="279.334" y2="146.333"/>
</g>
<g id="Calque_2">
	<rect x="135" y="102" fill="#FFFFFF" width="163" height="210"/>
</g>
<g id="Calque_4">
	<line fill="none" stroke="#7169A3" stroke-miterlimit="10" x1="154" y1="137.5" x2="278" y2="137.5"/>
	<line fill="none" stroke="#7169A3" stroke-miterlimit="10" x1="154" y1="159.5" x2="278" y2="159.5"/>
	<line fill="none" stroke="#7169A3" stroke-miterlimit="10" x1="154" y1="179.5" x2="278" y2="179.5"/>
	<line fill="none" stroke="#7169A3" stroke-miterlimit="10" x1="154" y1="201.5" x2="278" y2="201.5"/>
	<line fill="none" stroke="#7169A3" stroke-miterlimit="10" x1="154" y1="223.5" x2="278" y2="223.5"/>
	<line fill="none" stroke="#7169A3" stroke-miterlimit="10" x1="154" y1="245.5" x2="278" y2="245.5"/>
	<line fill="none" stroke="#7169A3" stroke-miterlimit="10" x1="154" y1="265.5" x2="278" y2="265.5"/>
	<line fill="none" stroke="#7169A3" stroke-miterlimit="10" x1="154" y1="287.5" x2="278" y2="287.5"/>
</g>
</svg>
