<?xml version="1.0" encoding="utf-8"?>
<!-- Generator: Adobe Illustrator 16.0.0, SVG Export Plug-In . SVG Version: 6.00 Build 0)  -->
<!DOCTYPE svg PUBLIC "-//W3C//DTD SVG 1.1//EN" "http://www.w3.org/Graphics/SVG/1.1/DTD/svg11.dtd">
<svg version="1.1" id="Calque_1" xmlns="http://www.w3.org/2000/svg" xmlns:xlink="http://www.w3.org/1999/xlink" x="0px" y="0px"
	 width="24px" height="24px" viewBox="0 0 24 24" enable-background="new 0 0 24 24" xml:space="preserve">
<g>
	<path fill="#FFFFFF" d="M22.931,6.229c0-1.113-0.431-2.19-1.22-2.98L20.742,2.28c-0.79-0.79-1.831-1.22-2.98-1.22
		c-1.113,0-2.19,0.431-2.979,1.22L2.254,14.809c-0.79,0.79-1.221,1.831-1.221,2.979c0,1.112,0.431,2.189,1.221,2.979l0.969,0.97
		c0.826,0.825,1.902,1.221,2.979,1.221c1.077,0,2.154-0.396,2.979-1.221L21.711,9.208C22.5,8.383,22.931,7.342,22.931,6.229z
		 M8.392,20.983c-1.22,1.221-3.194,1.221-4.415,0l-0.97-0.969C2.433,19.44,2.11,18.65,2.11,17.824s0.323-1.615,0.897-2.189
		l2.908-2.908l5.385,5.384L8.392,20.983z M12.054,17.322l-5.385-5.385l5.241-5.241l5.385,5.385L12.054,17.322z M18.049,11.327
		l-5.385-5.385l2.907-2.908c0.575-0.574,1.364-0.897,2.19-0.897s1.615,0.323,2.19,0.897l0.97,0.969
		c0.574,0.574,0.897,1.364,0.897,2.19s-0.324,1.615-0.897,2.19L18.049,11.327z"/>
	<ellipse fill="#FFFFFF" cx="12.014" cy="9.315" rx="0.61" ry="0.61"/>
	<ellipse fill="#FFFFFF" cx="13.342" cy="10.645" rx="0.61" ry="0.61"/>
	<ellipse fill="#FFFFFF" cx="14.67" cy="11.974" rx="0.61" ry="0.61"/>
	<ellipse fill="#FFFFFF" cx="10.655" cy="10.681" rx="0.61" ry="0.61"/>
	<ellipse fill="#FFFFFF" cx="11.983" cy="12.011" rx="0.61" ry="0.61"/>
	<ellipse fill="#FFFFFF" cx="13.311" cy="13.34" rx="0.61" ry="0.61"/>
	<ellipse fill="#FFFFFF" cx="9.296" cy="12.047" rx="0.61" ry="0.61"/>
	<ellipse fill="#FFFFFF" cx="10.623" cy="13.376" rx="0.61" ry="0.61"/>
	<ellipse fill="#FFFFFF" cx="11.951" cy="14.707" rx="0.61" ry="0.61"/>
	<path fill="#FFFFFF" d="M19.7,12.834c-0.215-0.215-0.539-0.215-0.753,0c-0.216,0.215-0.216,0.539,0,0.754l2.01,2.01
		c0.575,0.574,0.897,1.364,0.897,2.19s-0.323,1.616-0.897,2.189l-0.969,1.005c-1.221,1.221-3.195,1.221-4.416,0l-1.974-1.975
		c-0.215-0.215-0.539-0.215-0.753,0c-0.216,0.216-0.216,0.539,0,0.754l1.974,1.975c0.826,0.825,1.902,1.221,2.979,1.221
		s2.154-0.396,2.979-1.221l0.969-0.97c0.79-0.79,1.22-1.831,1.22-2.979c0-1.113-0.43-2.19-1.22-2.979L19.7,12.834z"/>
	<path fill="#FFFFFF" d="M4.192,11.111c0.108,0.108,0.251,0.144,0.395,0.144c0.144,0,0.288-0.036,0.395-0.144
		c0.216-0.215,0.216-0.539,0-0.754L3.043,8.419c-1.22-1.221-1.22-3.195,0-4.416l0.969-0.969c1.221-1.221,3.195-1.221,4.416,0
		l1.938,1.938c0.216,0.215,0.539,0.215,0.754,0s0.215-0.538,0-0.754L9.182,2.28c-1.651-1.651-4.308-1.651-5.923,0L2.29,3.25
		c-1.651,1.651-1.651,4.308,0,5.923L4.192,11.111z"/>
</g>
<text transform="matrix(1 0 0 1 10 92)" font-family="'Arial-BoldMT'" font-size="4">Created by Artem  Kovyazin</text>
<text transform="matrix(1 0 0 1 10 96)" font-family="'Arial-BoldMT'" font-size="4">from the Noun Project</text>
</svg>
