<?xml version="1.0" encoding="utf-8"?>
<!-- Generator: Adobe Illustrator 16.0.0, SVG Export Plug-In . SVG Version: 6.00 Build 0)  -->
<!DOCTYPE svg PUBLIC "-//W3C//DTD SVG 1.1//EN" "http://www.w3.org/Graphics/SVG/1.1/DTD/svg11.dtd">
<svg version="1.1" id="Calque_1" xmlns="http://www.w3.org/2000/svg" xmlns:xlink="http://www.w3.org/1999/xlink" x="0px" y="0px"
	 width="24px" height="24px" viewBox="0 0 24 24" enable-background="new 0 0 24 24" xml:space="preserve">
<path fill="#FFFFFF" d="M17.672,10.717c-0.766,0-1.187,0.544-1.162,0.618c-0.099-1.038-0.89-1.631-1.632-1.631
	c-0.593,0-1.112,0.297-1.409,0.742c0-0.049,0-0.074,0-0.124V1.893c0-0.791-0.519-1.483-1.335-1.582
	c-0.939-0.074-1.656,0.643-1.656,1.532c0,0,0,8.38,0,8.405c0-0.371-0.519-0.915-1.335-0.915c-1.063,0-1.631,1.038-1.631,2.15v1.755
	c-0.742,0.248-1.508,0.371-2.027,0.816c-0.47,0.396-0.717,1.014-0.618,1.607c0,0.024,0,0.024,0,0.049
	c0.173,1.384,1.508,2.941,2.299,3.708c0.445,0.445,0.939,0.84,1.409,1.236c0.593,0.494,0.47,1.112,0.47,1.805
	c0,0.791,0-1.904,0,0.099c0,0.618,0.494,1.137,1.112,1.137h6.452c0.618,0,1.113-0.495,1.113-1.112c0-0.568,0,0.148,0-0.42
	c0-0.296,0-0.593,0-0.89c0-0.346,0.024-0.396,0.271-0.593c0.692-0.593,1.162-1.137,1.162-2.101v-6.279
	C19.13,11.459,18.438,10.717,17.672,10.717z"/>
<text transform="matrix(1 0 0 1 10 92)" font-family="'Arial-BoldMT'" font-size="4">Created by Matthew Davis</text>
<text transform="matrix(1 0 0 1 10 96)" font-family="'Arial-BoldMT'" font-size="4">from the Noun Project</text>
</svg>
