<?xml version="1.0" encoding="utf-8"?>
<!-- Generator: Adobe Illustrator 16.0.0, SVG Export Plug-In . SVG Version: 6.00 Build 0)  -->
<!DOCTYPE svg PUBLIC "-//W3C//DTD SVG 1.1//EN" "http://www.w3.org/Graphics/SVG/1.1/DTD/svg11.dtd">
<svg version="1.1" id="Calque_1" xmlns="http://www.w3.org/2000/svg" xmlns:xlink="http://www.w3.org/1999/xlink" x="0px" y="0px"
	 width="24px" height="23.833px" viewBox="0 0 24 23.833" enable-background="new 0 0 24 23.833" xml:space="preserve">
<g>
	<path fill="#FFFFFF" d="M21.315,8.936c0-0.086-0.001-0.172-0.003-0.257h-0.04c-0.113-4.667-3.928-8.416-8.622-8.416
		c-0.086,0-0.172,0.001-0.257,0.004v8.412H5.033L2.457,6.103L1.224,7.335l2.942,2.942c0.645,4.127,4.215,7.285,8.522,7.285
		C17.453,17.562,21.315,13.699,21.315,8.936z"/>
	<path fill="#FFFFFF" d="M9.013,17.683c-1.623,0-2.944,1.32-2.944,2.944c0,1.623,1.32,2.944,2.944,2.944s2.943-1.321,2.943-2.944
		C11.956,19.003,10.636,17.683,9.013,17.683z M9.013,22.99c-1.302,0-2.363-1.06-2.363-2.363c0-1.303,1.06-2.363,2.363-2.363
		c1.302,0,2.363,1.06,2.363,2.363S10.315,22.99,9.013,22.99z"/>
	<circle fill="#FFFFFF" stroke="#FFFFFF" stroke-miterlimit="10" cx="9.013" cy="20.627" r="0.616"/>
	<path fill="#FFFFFF" d="M17.473,17.683c-1.623,0-2.943,1.32-2.943,2.944c0,1.623,1.32,2.944,2.943,2.944
		c1.624,0,2.944-1.321,2.944-2.944C20.417,19.003,19.096,17.683,17.473,17.683z M17.473,22.99c-1.302,0-2.362-1.06-2.362-2.363
		c0-1.303,1.06-2.363,2.362-2.363c1.303,0,2.363,1.06,2.363,2.363S18.775,22.99,17.473,22.99z"/>
	<circle fill="#FFFFFF" stroke="#FFFFFF" stroke-miterlimit="10" cx="17.473" cy="20.627" r="0.616"/>
</g>
</svg>
