<?xml version="1.0" encoding="utf-8"?>
<!-- Generator: Adobe Illustrator 16.0.0, SVG Export Plug-In . SVG Version: 6.00 Build 0)  -->
<!DOCTYPE svg PUBLIC "-//W3C//DTD SVG 1.1//EN" "http://www.w3.org/Graphics/SVG/1.1/DTD/svg11.dtd">
<svg version="1.1" id="Calque_1" xmlns="http://www.w3.org/2000/svg" xmlns:xlink="http://www.w3.org/1999/xlink" x="0px" y="0px"
	 width="24.578px" height="23.85px" viewBox="20.5 16.8 24.578 23.85" enable-background="new 20.5 16.8 24.578 23.85"
	 xml:space="preserve">
<path fill="#FFFFFF" d="M42.011,21.758h-5.001c-0.177-2.057-1.95-3.547-4.22-3.547s-4.043,1.49-4.221,3.547h-5.001
	c-1.171,0-2.128,0.958-2.128,2.128v11.35c0,1.17,0.958,2.128,2.128,2.128h18.443c1.17,0,2.128-0.958,2.128-2.128v-11.35
	C44.139,22.716,43.181,21.758,42.011,21.758z M32.789,18.921c1.916,0,3.333,1.17,3.511,2.837h-7.023
	C29.455,20.091,30.874,18.921,32.789,18.921z M43.43,35.236c0,0.78-0.638,1.419-1.419,1.419H23.567
	c-0.781,0-1.419-0.639-1.419-1.419v-6.881c3.511,1.703,6.881,2.554,10.286,2.625v0.709c0,0.213,0.142,0.355,0.354,0.355
	s0.354-0.142,0.354-0.355V30.98c3.37-0.071,6.739-0.922,10.286-2.625V35.236z M43.43,27.575c-3.547,1.738-6.917,2.625-10.286,2.696
	v-0.709c0-0.213-0.142-0.355-0.354-0.355s-0.354,0.142-0.354,0.355v0.709c-3.37-0.036-6.739-0.922-10.286-2.696v-3.688
	c0-0.781,0.638-1.419,1.419-1.419h18.443c0.781,0,1.419,0.638,1.419,1.419V27.575z"/>
<text transform="matrix(1 0 0 1 10 92)" font-family="'Arial-BoldMT'" font-size="4">Created by Spicy Icons</text>
<text transform="matrix(1 0 0 1 10 96)" font-family="'Arial-BoldMT'" font-size="4">from the Noun Project</text>
</svg>
