<?xml version="1.0" encoding="utf-8"?>
<!-- Generator: Adobe Illustrator 16.0.0, SVG Export Plug-In . SVG Version: 6.00 Build 0)  -->
<!DOCTYPE svg PUBLIC "-//W3C//DTD SVG 1.1//EN" "http://www.w3.org/Graphics/SVG/1.1/DTD/svg11.dtd">
<svg version="1.1" id="Calque_1" xmlns="http://www.w3.org/2000/svg" xmlns:xlink="http://www.w3.org/1999/xlink" x="0px" y="0px"
	 width="24px" height="23.903px" viewBox="0 0 24 23.903" enable-background="new 0 0 24 23.903" xml:space="preserve">
<path fill="#FFFFFF" d="M13.25,3.292c0.924,0,1.646-0.723,1.646-1.646C14.896,0.722,14.173,0,13.25,0
	c-0.922,0-1.646,0.722-1.646,1.646C11.604,2.568,12.327,3.292,13.25,3.292z"/>
<path fill="#FFFFFF" d="M6.074,12.364l1.079-0.101l0.024-3.837l1.966-1.244c0,0-0.318,2.521-0.318,3.845
	c0,1.155-0.042,2.088-0.042,2.088L6.267,23.167l1.777,0.737l2.819-9.191l1.959,2.492l2.232,6.295l2.006-0.802l-2.253-6.685
	l-2.471-3.902l0.693-5.115l1.544,3.237l3.973,1.365l0.552-1.004L15.458,8.47c0,0-0.882-2.347-1.604-3.815
	c-0.245-0.5-1.242-0.664-1.648-0.694c-1.17-0.086-1.775,0.31-2.746,0.82C8.49,5.29,5.775,7.345,5.775,7.345L6.074,12.364z"/>
</svg>
